<svg xmlns="http://www.w3.org/2000/svg" width="44" height="25" viewBox="0 0 44 25">
  <g fill="#000000" fill-rule="evenodd" opacity=".56">
    <path d="M43.5664706,12.3157895 C43.5656078,12.2973684 43.5638824,12.2798246 43.5625882,12.2618421 C43.5617255,12.2526316 43.5612941,12.2434211 43.5604314,12.2346491 C43.5591373,12.2214912 43.5569804,12.2083333 43.5552549,12.195614 C43.5535294,12.1802632 43.5518039,12.1649123 43.5492157,12.15 C43.5487843,12.1482456 43.5483529,12.1460526 43.5483529,12.1442982 C43.4952941,11.8052632 43.3382745,11.4872807 43.0975686,11.2425439 C41.7214902,9.58421053 40.0844314,8.10833333 38.4197647,6.76052632 C34.8346275,3.85614035 30.7344314,1.42631579 26.2084706,0.448245614 C23.5926275,-0.116666667 20.9603922,-0.140789474 18.3307451,0.337280702 C15.9387843,0.772368421 13.6335294,1.67675439 11.4758039,2.79780702 C8.09858824,4.55219298 5.01427451,6.97105263 2.32682353,9.68289474 C1.82945098,10.1846491 1.33466667,10.6969298 0.882588235,11.2421053 C0.280392157,11.9675439 0.280392157,12.8267544 0.882588235,13.552193 C2.25866667,15.2105263 3.89572549,16.6859649 5.56039216,18.0342105 C9.14596078,20.9385965 13.2461569,23.3679825 17.7721176,24.3460526 C20.3879608,24.9114035 23.0206275,24.9355263 25.6502745,24.4574561 C28.0418039,24.0223684 30.3470588,23.1179825 32.5052157,21.9969298 C35.8824314,20.2421053 38.9667451,17.8236842 41.6541961,15.1118421 C42.1515686,14.6096491 42.6463529,14.097807 43.0984314,13.5526316 C43.3391373,13.3074561 43.4961569,12.9899123 43.5492157,12.6504386 C43.5492157,12.6486842 43.5496471,12.6464912 43.5500784,12.6447368 C43.5526667,12.629386 43.5543922,12.6144737 43.5561176,12.5991228 C43.5578431,12.5864035 43.56,12.5732456 43.5612941,12.5600877 C43.5621569,12.5508772 43.5625882,12.5421053 43.563451,12.5328947 C43.5647451,12.5153509 43.5664706,12.497807 43.5673333,12.479386 C43.5686275,12.452193 43.5694902,12.425 43.5694902,12.3973684 C43.5694902,12.3697368 43.5677647,12.3429825 43.5664706,12.3157895 Z M22,20.8364035 C17.4158039,20.8364035 13.6999608,17.0583333 13.6999608,12.3973684 C13.6999608,7.73684211 17.4158039,3.95833333 22,3.95833333 C26.5841961,3.95833333 30.3000392,7.73640351 30.3000392,12.3973684 C30.3000392,17.0583333 26.5841961,20.8364035 22,20.8364035 Z"/>
    <ellipse cx="22" cy="12.397" rx="2.747" ry="2.793"/>
  </g>
</svg>
