<svg width="512" height="512" viewBox="0 0 512 512" fill="none" xmlns="http://www.w3.org/2000/svg">
	<style>
		path { fill: black; }
		@media (prefers-color-scheme: dark) {
		path { fill: white; }
		}
	</style>
	<path fill-rule="evenodd" clip-rule="evenodd" d="M282.732 70.9636C286.907 72.2772 290.553 74.8893 293.142 78.4197C295.731 81.9502 297.127 86.215 297.126 90.5939V193.478H379.379C383.14 193.476 386.83 194.507 390.047 196.458C393.263 198.409 395.884 201.206 397.622 204.543C399.361 207.881 400.152 211.632 399.908 215.388C399.665 219.144 398.396 222.761 396.241 225.846L252.299 431.614C249.793 435.206 246.208 437.903 242.065 439.315C237.922 440.727 233.436 440.779 229.262 439.464C225.087 438.148 221.44 435.534 218.852 432.002C216.265 428.47 214.871 424.203 214.874 419.824V316.939H132.621C128.86 316.941 125.17 315.91 121.953 313.959C118.736 312.008 116.116 309.212 114.377 305.874C112.639 302.537 111.848 298.786 112.092 295.03C112.335 291.274 113.604 287.657 115.759 284.572L259.701 78.8034C262.21 75.2186 265.796 72.5277 269.938 71.1215C274.079 69.7154 278.561 69.6673 282.732 70.9842V70.9636Z" fill="black" />
</svg>
