<?xml version="1.0" standalone="no"?>
<!DOCTYPE svg PUBLIC "-//W3C//DTD SVG 20010904//EN"
 "http://www.w3.org/TR/2001/REC-SVG-20010904/DTD/svg10.dtd">
<svg version="1.0" xmlns="http://www.w3.org/2000/svg"
 width="805.000000pt" height="805.000000pt" viewBox="0 0 805.000000 805.000000"
 preserveAspectRatio="xMidYMid meet">
<metadata>
Created by potrace 1.11, written by Peter Selinger 2001-2013
</metadata>
<g transform="translate(0.000000,805.000000) scale(0.100000,-0.100000)"
fill="#000000" stroke="none">
<path d="M3765 8044 c-1176 -94 -2187 -628 -2905 -1534 -460 -581 -742 -1268
-837 -2040 -25 -204 -25 -686 0 -890 77 -621 266 -1169 579 -1672 552 -889
1424 -1529 2428 -1783 357 -90 602 -119 995 -119 322 0 458 11 725 60 1168
216 2171 924 2765 1954 273 472 441 985 512 1560 25 204 25 686 0 890 -136
1104 -658 2040 -1517 2720 -578 457 -1272 743 -2030 835 -129 16 -598 28 -715
19z m583 -1495 c54 -26 99 -86 107 -143 5 -28 -27 -316 -94 -857 -56 -448
-104 -824 -106 -836 l-5 -23 968 0 969 0 44 -23 c88 -47 132 -162 96 -248 -20
-49 -2397 -2899 -2436 -2922 -18 -10 -56 -21 -85 -24 -101 -10 -197 63 -211
161 -5 28 27 316 94 857 56 448 104 824 106 837 l5 22 -968 0 -969 0 -44 23
c-63 34 -99 90 -106 163 -3 45 0 67 14 94 21 40 2359 2851 2405 2891 57 51
145 62 216 28z"/>
<path d="M3154 4729 l-811 -974 871 -5 c961 -6 895 -1 960 -69 62 -65 62 -63
-20 -716 -41 -325 -73 -599 -72 -610 2 -13 254 282 815 955 l812 975 -872 5
c-962 6 -896 1 -961 69 -62 65 -62 63 20 716 41 325 73 598 72 609 -2 12 -276
-310 -814 -955z"/>
</g>
</svg>
