<?xml version="1.0" standalone="no"?>
<!DOCTYPE svg PUBLIC "-//W3C//DTD SVG 20010904//EN"
 "http://www.w3.org/TR/2001/REC-SVG-20010904/DTD/svg10.dtd">
<svg version="1.0" xmlns="http://www.w3.org/2000/svg"
 width="512.000000pt" height="512.000000pt" viewBox="0 0 512.000000 512.000000"
 preserveAspectRatio="xMidYMid meet">
<metadata>
Created by potrace 1.11, written by Peter Selinger 2001-2013
</metadata>
<g transform="translate(0.000000,512.000000) scale(0.100000,-0.100000)"
fill="#000000" stroke="none">
<path d="M2673 4395 c-52 -26 -58 -34 -253 -316 -54 -77 -200 -287 -300 -429
-203 -289 -320 -457 -444 -635 -69 -99 -129 -184 -133 -190 -5 -5 -38 -53 -74
-105 -36 -52 -94 -135 -130 -185 -210 -295 -219 -312 -215 -387 5 -93 60 -163
147 -188 20 -6 213 -10 456 -10 l423 0 0 -543 0 -543 29 -46 c16 -25 42 -54
58 -66 82 -58 218 -39 277 40 16 21 450 642 914 1305 108 156 230 329 269 385
40 57 77 110 83 118 44 64 130 187 137 195 5 6 23 32 40 59 76 114 44 248 -72
309 -39 20 -54 21 -475 22 l-435 0 -5 545 c-3 374 -9 553 -16 570 -17 37 -64
80 -109 101 -56 26 -112 24 -172 -6z"/>
</g>
</svg>
