<?xml version="1.0" standalone="no"?>
<!DOCTYPE svg PUBLIC "-//W3C//DTD SVG 20010904//EN"
 "http://www.w3.org/TR/2001/REC-SVG-20010904/DTD/svg10.dtd">
<svg version="1.0" xmlns="http://www.w3.org/2000/svg"
 width="512.000000pt" height="512.000000pt" viewBox="0 0 512.000000 512.000000"
 preserveAspectRatio="xMidYMid meet">
<metadata>
Created by potrace 1.11, written by Peter Selinger 2001-2013
</metadata>
<g transform="translate(0.000000,512.000000) scale(0.100000,-0.100000)"
fill="#000000" stroke="none">
<path d="M1208 4185 c-130 -35 -239 -146 -274 -277 -21 -79 -21 -2617 0 -2696
36 -133 145 -242 278 -278 79 -21 2617 -21 2696 0 133 36 242 145 278 278 21
79 21 2617 0 2696 -36 133 -145 242 -278 278 -75 20 -2628 19 -2700 -1z m2707
-139 c63 -29 102 -68 131 -131 l24 -50 0 -1305 0 -1305 -24 -50 c-29 -63 -68
-102 -131 -131 l-50 -24 -1305 0 -1305 0 -50 24 c-63 29 -102 68 -131 131
l-24 50 0 1305 0 1305 24 50 c29 63 68 102 131 131 l50 24 1305 0 1305 0 50
-24z"/>
<path d="M1452 3668 c-10 -10 6 -31 75 -100 l88 -88 -90 -84 c-73 -69 -88 -86
-77 -97 10 -11 29 3 101 75 l89 89 91 -88 c69 -67 94 -86 103 -77 9 9 -10 32
-75 93 -48 44 -87 85 -87 90 0 5 38 45 85 90 69 67 83 84 73 96 -9 12 -27 -1
-100 -74 l-88 -88 -88 88 c-69 69 -90 85 -100 75z"/>
</g>
</svg>
